# xmcd
#
# Track frame offsets:
#	150
#	14871
#	34374
#	54207
#	74667
#	97397
#	117989
#	137569
#	158665
#	178850
#	194774
#	215383
#	241969
#	264306
#	283647
#	306223
#
# Disc length: 4389 seconds
#
# Revision: 0
# Processed by: cddbd v1.5.2PL0 Copyright (c) Steve Scherf et al.
# Submitted via: EZCDAudioConverter 1.2.3.1
#
DISCID=f9112310
DTITLE=潘源良是誰最愛作品選
DYEAR=1900
DGENRE=
TTITLE0=一峰 二汶 C AllStar - 憑著愛
TTITLE1=張學友 - 遙遠的她
TTITLE2=林憶蓮 - 早晨
TTITLE3=杜德偉 - 擦身情緣
TTITLE4=王傑 - 誰明浪子心
TTITLE5=張學友 - 明日世界終結時
TTITLE6=王菲 - 容易受傷的女人
TTITLE7=倫永亮 - 我為何讓你走
TTITLE8=李國祥 - 餘情未了
TTITLE9=王菲 - 雨天沒有你
TTITLE10=林憶蓮 - 赤裸的秘密
TTITLE11=鄭秀文 - 愛的輓歌
TTITLE12=陳奕迅 - 遊離份子
TTITLE13=張學友 - 怎麼捨得你
TTITLE14=陳奕迅 - 愈想愈無謂
TTITLE15=陳奕迅 - 超錯
EXTD=
EXTT0=
EXTT1=
EXTT2=
EXTT3=
EXTT4=
EXTT5=
EXTT6=
EXTT7=
EXTT8=
EXTT9=
EXTT10=
EXTT11=
EXTT12=
EXTT13=
EXTT14=
EXTT15=
PLAYORDER=
